<mxfile host="app.diagrams.net" agent="Mozilla/5.0 (X11; Linux x86_64) AppleWebKit/537.36 (KHTML, like Gecko) Chrome/131.0.0.0 Safari/537.36" version="25.0.3" pages="2">
  <diagram name="Trang-1" id="EANZOwzSC-dSeC8dc-hd">
    <mxGraphModel dx="989" dy="625" grid="1" gridSize="10" guides="1" tooltips="1" connect="1" arrows="1" fold="1" page="1" pageScale="1" pageWidth="827" pageHeight="1169" math="0" shadow="0">
      <root>
        <mxCell id="0" />
        <mxCell id="1" parent="0" />
        <mxCell id="f12Qq1OD6IWFqGnEjADB-19" style="edgeStyle=orthogonalEdgeStyle;rounded=0;orthogonalLoop=1;jettySize=auto;html=1;exitX=0.5;exitY=1;exitDx=0;exitDy=0;" edge="1" parent="1" source="f12Qq1OD6IWFqGnEjADB-1" target="f12Qq1OD6IWFqGnEjADB-13">
          <mxGeometry relative="1" as="geometry" />
        </mxCell>
        <mxCell id="f12Qq1OD6IWFqGnEjADB-1" value="" style="rounded=0;whiteSpace=wrap;html=1;" vertex="1" parent="1">
          <mxGeometry x="111.25" y="120" width="280" height="160" as="geometry" />
        </mxCell>
        <mxCell id="f12Qq1OD6IWFqGnEjADB-2" value="&lt;font face=&quot;Courier New&quot;&gt;Identification&lt;/font&gt;" style="rounded=0;whiteSpace=wrap;html=1;rotation=-90;" vertex="1" parent="1">
          <mxGeometry x="-20" y="180.25" width="160" height="40" as="geometry" />
        </mxCell>
        <mxCell id="f12Qq1OD6IWFqGnEjADB-3" value="&lt;font face=&quot;Courier New&quot;&gt;Screening&lt;/font&gt;" style="rounded=0;whiteSpace=wrap;html=1;rotation=-90;" vertex="1" parent="1">
          <mxGeometry x="-19.370000000000005" y="359.38" width="158.75" height="40" as="geometry" />
        </mxCell>
        <mxCell id="f12Qq1OD6IWFqGnEjADB-4" value="&lt;font face=&quot;Courier New&quot;&gt;Inclusion&lt;/font&gt;" style="rounded=0;whiteSpace=wrap;html=1;rotation=-90;" vertex="1" parent="1">
          <mxGeometry x="21.25" y="500" width="80" height="40" as="geometry" />
        </mxCell>
        <mxCell id="f12Qq1OD6IWFqGnEjADB-12" style="edgeStyle=orthogonalEdgeStyle;rounded=0;orthogonalLoop=1;jettySize=auto;html=1;exitX=0.25;exitY=1;exitDx=0;exitDy=0;entryX=0.5;entryY=0;entryDx=0;entryDy=0;" edge="1" parent="1" source="f12Qq1OD6IWFqGnEjADB-6" target="f12Qq1OD6IWFqGnEjADB-8">
          <mxGeometry relative="1" as="geometry" />
        </mxCell>
        <mxCell id="f12Qq1OD6IWFqGnEjADB-6" value="&lt;font style=&quot;font-size: 9px;&quot; face=&quot;Courier New&quot;&gt;&lt;b style=&quot;&quot;&gt;Source&lt;/b&gt;: Google Scholar&lt;/font&gt;&lt;div&gt;&lt;font style=&quot;font-size: 9px;&quot; face=&quot;Courier New&quot;&gt;&lt;b&gt;Keyword&lt;/b&gt;:&amp;nbsp;{&quot;energy&quot; OR &quot;energy consumption&quot;} AND {&quot;FL&quot; OR &quot;FL performance&quot;}&lt;/font&gt;&lt;/div&gt;&lt;div&gt;&lt;font style=&quot;font-size: 9px;&quot; face=&quot;Courier New&quot;&gt;&lt;b&gt;Range&lt;/b&gt;: 2019 - 10/2024&lt;/font&gt;&lt;/div&gt;&lt;div&gt;&lt;font style=&quot;font-size: 9px;&quot; face=&quot;Courier New&quot;&gt;&lt;b style=&quot;&quot;&gt;Page of Google Scholar&lt;/b&gt;: 10&lt;/font&gt;&lt;/div&gt;" style="rounded=1;whiteSpace=wrap;html=1;dashed=1;align=left;dashPattern=1 2;" vertex="1" parent="1">
          <mxGeometry x="121.25" y="130" width="260" height="80" as="geometry" />
        </mxCell>
        <mxCell id="f12Qq1OD6IWFqGnEjADB-11" value="" style="edgeStyle=orthogonalEdgeStyle;rounded=0;orthogonalLoop=1;jettySize=auto;html=1;dashed=1;strokeColor=default;" edge="1" parent="1" source="f12Qq1OD6IWFqGnEjADB-8" target="f12Qq1OD6IWFqGnEjADB-10">
          <mxGeometry relative="1" as="geometry" />
        </mxCell>
        <mxCell id="f12Qq1OD6IWFqGnEjADB-8" value="&lt;font style=&quot;font-size: 9px;&quot; face=&quot;Courier New&quot;&gt;n = 200&lt;/font&gt;" style="rounded=1;whiteSpace=wrap;html=1;dashed=1;dashPattern=1 2;" vertex="1" parent="1">
          <mxGeometry x="146.25" y="233" width="80" height="30" as="geometry" />
        </mxCell>
        <mxCell id="f12Qq1OD6IWFqGnEjADB-10" value="&lt;font style=&quot;font-size: 9px;&quot; face=&quot;Courier New&quot;&gt;Duplicates&lt;/font&gt;&lt;div&gt;&lt;font style=&quot;font-size: 9px;&quot; face=&quot;Courier New&quot;&gt;n = xx&lt;/font&gt;&lt;/div&gt;" style="rounded=1;whiteSpace=wrap;html=1;dashed=1;" vertex="1" parent="1">
          <mxGeometry x="283.25" y="233" width="80" height="30" as="geometry" />
        </mxCell>
        <mxCell id="f12Qq1OD6IWFqGnEjADB-26" style="edgeStyle=orthogonalEdgeStyle;rounded=0;orthogonalLoop=1;jettySize=auto;html=1;exitX=0.5;exitY=1;exitDx=0;exitDy=0;entryX=0.5;entryY=0;entryDx=0;entryDy=0;" edge="1" parent="1" source="f12Qq1OD6IWFqGnEjADB-13" target="f12Qq1OD6IWFqGnEjADB-24">
          <mxGeometry relative="1" as="geometry" />
        </mxCell>
        <mxCell id="f12Qq1OD6IWFqGnEjADB-13" value="" style="rounded=0;whiteSpace=wrap;html=1;" vertex="1" parent="1">
          <mxGeometry x="111.25" y="300" width="280" height="160" as="geometry" />
        </mxCell>
        <mxCell id="f12Qq1OD6IWFqGnEjADB-17" style="edgeStyle=orthogonalEdgeStyle;rounded=0;orthogonalLoop=1;jettySize=auto;html=1;exitX=0.5;exitY=1;exitDx=0;exitDy=0;entryX=0.5;entryY=0;entryDx=0;entryDy=0;" edge="1" parent="1" source="f12Qq1OD6IWFqGnEjADB-14" target="f12Qq1OD6IWFqGnEjADB-15">
          <mxGeometry relative="1" as="geometry" />
        </mxCell>
        <mxCell id="f12Qq1OD6IWFqGnEjADB-14" value="&lt;div&gt;&lt;font style=&quot;font-size: 9px;&quot; face=&quot;Courier New&quot;&gt;Init.&lt;/font&gt;&lt;/div&gt;&lt;font style=&quot;font-size: 9px;&quot; face=&quot;Courier New&quot;&gt;n = 200-xx&lt;/font&gt;" style="rounded=1;whiteSpace=wrap;html=1;dashed=1;dashPattern=1 2;" vertex="1" parent="1">
          <mxGeometry x="120" y="310" width="111.25" height="30" as="geometry" />
        </mxCell>
        <mxCell id="f12Qq1OD6IWFqGnEjADB-18" style="edgeStyle=orthogonalEdgeStyle;rounded=0;orthogonalLoop=1;jettySize=auto;html=1;entryX=0;entryY=0.5;entryDx=0;entryDy=0;dashed=1;" edge="1" parent="1" source="f12Qq1OD6IWFqGnEjADB-15" target="f12Qq1OD6IWFqGnEjADB-16">
          <mxGeometry relative="1" as="geometry" />
        </mxCell>
        <mxCell id="f12Qq1OD6IWFqGnEjADB-22" style="edgeStyle=orthogonalEdgeStyle;rounded=0;orthogonalLoop=1;jettySize=auto;html=1;exitX=0.5;exitY=1;exitDx=0;exitDy=0;entryX=0.5;entryY=0;entryDx=0;entryDy=0;" edge="1" parent="1" source="f12Qq1OD6IWFqGnEjADB-15" target="f12Qq1OD6IWFqGnEjADB-20">
          <mxGeometry relative="1" as="geometry" />
        </mxCell>
        <mxCell id="f12Qq1OD6IWFqGnEjADB-15" value="&lt;div&gt;&lt;font style=&quot;font-size: 9px;&quot; face=&quot;Courier New&quot;&gt;Title + Abstract&lt;/font&gt;&lt;/div&gt;&lt;font style=&quot;font-size: 9px;&quot; face=&quot;Courier New&quot;&gt;n = 200-xx-y&lt;/font&gt;" style="rounded=1;whiteSpace=wrap;html=1;dashed=1;dashPattern=1 2;" vertex="1" parent="1">
          <mxGeometry x="120" y="365" width="111.25" height="30" as="geometry" />
        </mxCell>
        <mxCell id="f12Qq1OD6IWFqGnEjADB-30" style="edgeStyle=orthogonalEdgeStyle;rounded=0;orthogonalLoop=1;jettySize=auto;html=1;entryX=0;entryY=0.5;entryDx=0;entryDy=0;" edge="1" parent="1" source="f12Qq1OD6IWFqGnEjADB-16" target="f12Qq1OD6IWFqGnEjADB-27">
          <mxGeometry relative="1" as="geometry" />
        </mxCell>
        <mxCell id="f12Qq1OD6IWFqGnEjADB-16" value="&lt;div&gt;&lt;font style=&quot;font-size: 9px;&quot; face=&quot;Courier New&quot;&gt;Exclusion based on criteria n = y&lt;/font&gt;&lt;/div&gt;" style="rounded=1;whiteSpace=wrap;html=1;dashed=1;" vertex="1" parent="1">
          <mxGeometry x="271.25" y="365" width="110" height="30" as="geometry" />
        </mxCell>
        <mxCell id="f12Qq1OD6IWFqGnEjADB-23" style="edgeStyle=orthogonalEdgeStyle;rounded=0;orthogonalLoop=1;jettySize=auto;html=1;exitX=1;exitY=0.5;exitDx=0;exitDy=0;entryX=0;entryY=0.5;entryDx=0;entryDy=0;dashed=1;" edge="1" parent="1" source="f12Qq1OD6IWFqGnEjADB-20" target="f12Qq1OD6IWFqGnEjADB-21">
          <mxGeometry relative="1" as="geometry" />
        </mxCell>
        <mxCell id="f12Qq1OD6IWFqGnEjADB-20" value="&lt;div&gt;&lt;font style=&quot;font-size: 9px;&quot; face=&quot;Courier New&quot;&gt;Reading details&lt;/font&gt;&lt;/div&gt;&lt;font style=&quot;font-size: 9px;&quot; face=&quot;Courier New&quot;&gt;n = 200-xx-y-z&lt;/font&gt;" style="rounded=1;whiteSpace=wrap;html=1;dashed=1;dashPattern=1 2;" vertex="1" parent="1">
          <mxGeometry x="120" y="420" width="111.25" height="30" as="geometry" />
        </mxCell>
        <mxCell id="f12Qq1OD6IWFqGnEjADB-21" value="&lt;div&gt;&lt;font style=&quot;font-size: 9px;&quot; face=&quot;Courier New&quot;&gt;Exclusion based on criteria n = z&lt;/font&gt;&lt;/div&gt;" style="rounded=1;whiteSpace=wrap;html=1;dashed=1;" vertex="1" parent="1">
          <mxGeometry x="271.25" y="420" width="110" height="30" as="geometry" />
        </mxCell>
        <mxCell id="f12Qq1OD6IWFqGnEjADB-24" value="" style="rounded=0;whiteSpace=wrap;html=1;" vertex="1" parent="1">
          <mxGeometry x="111.25" y="480" width="280" height="80" as="geometry" />
        </mxCell>
        <mxCell id="f12Qq1OD6IWFqGnEjADB-25" value="&lt;div&gt;&lt;font size=&quot;1&quot; face=&quot;Courier New&quot;&gt;Final articles included&amp;nbsp;&lt;/font&gt;&lt;/div&gt;&lt;div&gt;&lt;font size=&quot;1&quot; face=&quot;Courier New&quot;&gt;n = abc&lt;/font&gt;&lt;/div&gt;" style="rounded=1;whiteSpace=wrap;html=1;dashed=1;dashPattern=1 2;" vertex="1" parent="1">
          <mxGeometry x="121.25" y="495" width="111.25" height="50" as="geometry" />
        </mxCell>
        <mxCell id="f12Qq1OD6IWFqGnEjADB-27" value="&lt;font style=&quot;font-size: 9px;&quot; face=&quot;Courier New&quot;&gt;Article excluded with reason:&lt;/font&gt;&lt;div&gt;&lt;ul&gt;&lt;li&gt;&lt;font style=&quot;font-size: 9px;&quot; face=&quot;Courier New&quot;&gt;sss&lt;/font&gt;&lt;/li&gt;&lt;li&gt;&lt;font style=&quot;font-size: 9px;&quot; face=&quot;Courier New&quot;&gt;sss&lt;/font&gt;&lt;/li&gt;&lt;li&gt;&lt;font style=&quot;font-size: 9px;&quot; face=&quot;Courier New&quot;&gt;sss (n = )&lt;/font&gt;&lt;/li&gt;&lt;/ul&gt;&lt;/div&gt;" style="rounded=0;whiteSpace=wrap;html=1;align=left;dashed=1;" vertex="1" parent="1">
          <mxGeometry x="411.25" y="300" width="212" height="160" as="geometry" />
        </mxCell>
        <mxCell id="f12Qq1OD6IWFqGnEjADB-29" style="edgeStyle=orthogonalEdgeStyle;rounded=0;orthogonalLoop=1;jettySize=auto;html=1;entryX=-0.002;entryY=0.848;entryDx=0;entryDy=0;entryPerimeter=0;" edge="1" parent="1" source="f12Qq1OD6IWFqGnEjADB-21" target="f12Qq1OD6IWFqGnEjADB-27">
          <mxGeometry relative="1" as="geometry" />
        </mxCell>
      </root>
    </mxGraphModel>
  </diagram>
  <diagram id="9Uqctx78jmnPk_pqYoFC" name="Trang-2">
    <mxGraphModel dx="1434" dy="759" grid="1" gridSize="10" guides="1" tooltips="1" connect="1" arrows="1" fold="1" page="1" pageScale="1" pageWidth="827" pageHeight="1169" math="0" shadow="0">
      <root>
        <mxCell id="0" />
        <mxCell id="1" parent="0" />
        <mxCell id="T_whibfby476LMdTVDX2-5" value="" style="group" vertex="1" connectable="0" parent="1">
          <mxGeometry x="140" y="160" width="190" height="160" as="geometry" />
        </mxCell>
        <mxCell id="T_whibfby476LMdTVDX2-4" value="" style="ellipse;whiteSpace=wrap;html=1;" vertex="1" parent="T_whibfby476LMdTVDX2-5">
          <mxGeometry width="190" height="160" as="geometry" />
        </mxCell>
        <mxCell id="T_whibfby476LMdTVDX2-3" value="" style="shape=image;verticalLabelPosition=bottom;labelBackgroundColor=default;verticalAlign=top;aspect=fixed;imageAspect=0;image=data:image/png,iVBORw0KGgoAAAANSUhEUgAAAMgAAADICAMAAACahl6sAAAA1VBMVEX//////vz//fv9lgD9mAD9/vuVyQL7lAD//v///fz+lgD7kgD9mgH5lAD9/////fn5mwuMwwD2+ev13Lb5+/KmzDH20Zb98+T89/D67df2qjX6nhH89uz65MH7jwD2pyvY56jR45Tg6ryexh/o8Mys0EDB2HXy9uPa5a3Q5Jiy1FHG3H/s8tX1u2T126/52af3xHj2zIn1yYL3uVj4vGL66s+51V3X56OZxRLj7MHB3W3N4YmWwRmczBmEwACsy0T7skL2wXTznxz00Z30vVfzs0i010yUgH/GAAAM5ElEQVR4nO2bCXuivBaAg4CIQAjuFbe61KXihmt7+43idf7/T7rnBJ1Rq22d5Su9T95nxrZhSc7J2RKQEIFAIBAIBAKBQCAQCAQCgUAgEAgEAoFAIBAIBAKBQCAQCAQCgUAgEAgEAoHg/5J+5rNH8EeQyLwGH18cFci89Iitqpdkof/6gH6HhbPsXzyQuv8iE0VJptbt3mfj8d59976eOD2qksWyT9XPGdqNSOqz4zhxwHEazcS5Ic2dxacM65eoN+KcXvukOZNKtesv8VY7lUrZnzS0G+kvuRwJcmJEzd7LEg8sG8t56rOGdguUpLggc/WsufMSzpTT6n+R2Fx34r1sfJk6D7XtFhfkIbLJ0j4b2VPjXlIfl/Wz0yRyj3K8NEk045ZKVg+nI7tv41x0Oq/OfIpDPIO4FUVBJEklj8sMZPFjs5dQvsT5uYlG/HH15Mz1f3F8t6C2zpMD1/i5P0uk/m0FPxatKMasdnO1eo7Hs/XVqvmOD1PSVrl4qR+WFZnYRUmzEeZx+JxnIjOu2wFHz4bJIf54q8FAvulkIlQMZ3pcju7NF0qk+Z9mdKxLJc88OfRvjKkqRLvFP11yGu0+lZYTX8adX1gRJrLx7N8Y0C8hQYXYqLcfnKdbrqKk/9RroXdlW9lvkbAvSA4PWK3XH2709e7SCSvIZTcCYiCYPagEK/Qbr9uHu2zzbwzql7iYxj9wVVjV1yJZeN2AqkIp7MSdR/WLCyIles73R/j/xQWBaJeFBZb60Pgqq8UrQAXZ5O7VbL9/8l8fzKsFxwUk24Z/9sUliApHSezskH44Oxaz93Ol/+DotjHp/LLTBilmf3SqU52PRZzo1IVXWLXab9s3KLCUm+7Wu503uLyTVc6NvPJZk+d5A7jv3WTkbfmc36UPlA/dFYbeZlg4usoebLxc/rjvwcjL3b0rg4ob1J16XVIv71Tv5bibuqahyZpmsOLg9cTEyNRSKrnTRr9iGDlik1yFVTw4hRQCdiAI1WGPXWZZLMhJe1vTcwHTLNMd7ytQiQ6qTNZMdxN7VxRI6R2189aiEO4WaKaiJA1DNk3ZyiXOHUWS1hqzzmYkMBUXmvSpZlpjEIiU4R6IaSprrp6SrylyEu5p5SjeUo+NoJ+krJjWhIY9T0xZSSZN0/De2h+gRK11O/Vum6xq9c796vJZOskxhSlW1R9t1gy7HZBT/YD5BJYV5MlxZ3lXSbolsMlAVlgaZCUjEEHWZFlWjA3eV/cMpri7NTOV4A6u1cnEMk13t2OmzGb8ZkNoYNCgKNbwLeuXpEWr34a4KbXb9W+XiyWdDJliatVhPkZpIV01Ta1Ywl7CoCSFHjQrl+/CjmJctfyqJCq+NPatAC+QiprCvBGymeGFAwskKNuFicKMCQXrKkODm4YGi2lTihbtghy5gr2Fhh19O3Y1F6FVZWqXE5pE8lWZybs8CeuwmauYle2R7mMn3g/ttGBTsKSJosgjaLHJuOLjhMCV8s5OEArgqYUi2NwQjs9cU/bhLnQHUzbmPSoyKCtGfM00RvxUxeST9hb9Wgp6aXdTl0OwREcVphXBbPA2UoxOLDfgFrzN5bYkMfB3kwJNj3Pj0DrsrbfbjdIUB6EN8bxZgN4DTm8xI0fIj7oUJkRb40TAuJUiRK40OE8VZo6UijIaG0gIP3EybV82wd/enBJVrWNKbl/ZNcTpVUw2+HmTUrp8h/GyxCqVouRZycrOLhQrhpUmkNrKRUtLJg1rXKrKpoWyTdzKhmKe8w1w6vR4ewiloGWFTy2eymDGQXR5zIMAHAInoSPDNCZ4qr2TlXcEgSXeirQ7KdK5lu5yBkPFoVASchBwAD763/9qSRkkAONQqnmwhXJggKPCEVYEQwJtEj1wx7EwHoC9u6AV1y/hHWYQNzAYoM1xQe4CiFazI0HyqAseWOyd9t6MSKT50O80O53nKwGYwqwqY3IexkHToNDAsKpFr0QGoLp1QdcLVYPJxW16HMgQ3bQp9FyYcQXF0JIgihpJpsCp6DngQzuKIyi7igIhb2uZyWKJG0EgoyBpiyVBPXCTfKDI7uydonTBo1Wnd2VhVIJeXLSGBLkr75nZcM815pRgm1cpoRNwSo/YdAx+UcSwgCHBNHJHgUbyDFNjvufDvFQmIMgOZhoMiTuPqe0KdGoww6MocxpEAgkmoB6fcsks6Gr2trPr/QyRIKm3r2wDlSGoBwU+BzuwDITtSqFh84SH6vYhVQy54kxWJrYeox4mMW4W+95tn7H1zKb2mJkm6J/bTRodmYwMlvRpATRjbCk6O9QCEN9034LEiJmUDMB7qqV3olYYRa4UjeAKppkM+K82dJ0EezIrUx4zZVODbrDjQgCzBtY91JjBw72kg7EpwYkx2IWSjX0Vwigwg2sYBgNJ9Q0G5c1dFVykjKJTSJSQMkvQAOrBhknSNHavzPscevT5WpDhXhAdvNOw0FnDgmOocMVy7tDIbBgAJAasrjDZGWYSXOG8ssdwjukDHACSB8Zc/TA3mE2qPFcUitCwhdKATzlmph3M/uTdCXkLnBGIPlyxpcFgUE5j7EnDYDdg8h4Nz9lC5t+BztdgYbxnQseg1Cm5VCnvBQHXBvNBjwDjTYJjQVqXq7zKmVm8Zskzc1/2oJ+y9wvgtylDlnJLP5QBViRjjlUhIFaGfNA6D0AQ723IY26Yf8FzueH9vA9YVuhphWrShFENWZjOwW7A6z3oyGJyWPuMwWh3OgqiVQthjWQqxd+UAycYLRW7hOIqBvFDK9IYz8Ys9AGdrDXu6yCI6fLYonO3H/wwBiijioyNJB6GQQIwunJYl+g6T4dlzCsmF0SX1mC1A96zjILwSkXb/q4gmEcwYuz/GsmK5qOvM54C+UgLAXdfNK2weCIE4nEYtEMksgUL9VEiGyyrMqbg7OBEGMZ58KW8wEpCPzYPL0UwWgxjYFo22p5SLVwY2y1gSQrxsrrNY3EyKjKTmejPQ/QBnuYxocHMY9EHJYW2LkHcAK2bRlU68s58WOjQ/NTieonZa4tPRBrtHxyLlzBsSHk4s9DTIHYwiCvkrsj18yFXp+2rCyuJbioQlEw3CHA1B/maYa0w4WUQKj9GcnAckriOiQwkGQ99lsSmk0y8MUAHxXUAKxu0OYmMce3heWC5fBUVw7WHwqZTbBjtVQhW7Y9cqPKniY/sP1CSmvevlVrgdL4F2QOWQ7ByUwyziBVszD/EeBAGNKflMAMXQKmwCpQN5ppMyZ0osVTFY3ALg4VL4sKuAusliKvWBvdfEiQ2reDV0DC1QxWOKuElld1HDEuSVLpyOuq1BzUQZ8ZVzYIlqaxZ7nTA71kKNGMfoMDqKxbkAYmvXWFhL1vVwQ6azla+d74lw8Atv7wXsORZBvwd5Oi+oeAxWD4a7ngf7PTSiME1Ght92EGenN71gxjIy+PN1N9sy5gB+TRgTjkUH+XBIF04/L6ZboZ5MoOm8ySilkfT6YTXaXvKE29zvGNCZxPfO20YT6fj2Ye2oTKr5mqxjC8Xq9Xq2l4hH3G4rHu1DXd+Il/+XZrbw7EfB/X9TXVyreGo2/dpf/vn8Fg6e3339rBbc00K/dUv1056u4K9/ZKfZB72j6Wffu89hs/ehoQ5eA7fWUr81m76lb2kfxGV1P/AE6d2K/PZU6KSByfeWv4zT/y6ICp5drqf/OiNUjW77GTqjWzqN0xLbznzPzioX0Ei/Qd8RTn18KtPydvPj4/zl/jLfPH8/KnvPWWwGpDIh6qZ12B94+yftDu3PqOPGt3wrdNl7bMHcsatTquSBU+pH3zuFV1U0nXwSXsnYg+oMze/HyTNncbT8rbXcf46VK03Uje+epVawnqm32tE50V5fJJI5k6NZFT13UT90476NfzUa+1PL7iO6b84vY88dz9FjdJrDxJZzedz/KrF93nv4b0XGdTuz7GHExEdV5dSD4evvixrb78zS6UVuFJ0hv6KDv+iRbx1+YtVe8CVMrA8vsen9FHyiiMkTAlA+107aTecSL5RvodKj1yQunRd05TUv7W+N/gLma35m1P3iWSyzvw+C7ntaEZUsqofByWaeT6UicuoZfM9Kmk27hMk9ZQ9Hd786cyv6+ELmd8j8I7WFfr7t8hOtlBTL8vTEUthmRhfRSl7nKPyl2YPA6SQ6dT7uFOz1SNrk6RnLsgiwnJIR5+AWuu10K9fGq354mfCV1tOr9Z7a38yYlDS7u23vZx5+6i6yi5AmsdsZL/2doHEPV//vdwfF2CpPsH31PoRziTnSPxbDJAzyGltr5IoFVcfgJJUFr+01Di1olCoryQJZMP48rm7/PIrcpU84pen+72HKOeMj6D2bahyid3/2hPCUb+WNwgEAoFAIBAIBAKBQCAQCAQCgUAgEAgEAoFAIBAIBAKB4M/xP2taJOfLjwvtAAAAAElFTkSuQmCC;clipPath=inset(9.5% 3% 8.5% 2% round 50%);imageBorder=none;" vertex="1" parent="T_whibfby476LMdTVDX2-5">
          <mxGeometry x="8.110000000000014" y="5" width="173.78" height="150" as="geometry" />
        </mxCell>
        <mxCell id="T_whibfby476LMdTVDX2-7" value="&lt;b&gt;&lt;font color=&quot;#00cccc&quot; style=&quot;font-size: 17px;&quot;&gt;EXPETATOR&lt;/font&gt;&lt;/b&gt;&lt;div&gt;&lt;ul&gt;&lt;li style=&quot;text-align: left;&quot;&gt;&lt;b&gt;&lt;font style=&quot;font-size: 17px;&quot;&gt;RAPL&amp;nbsp;&lt;/font&gt;&lt;/b&gt;&lt;/li&gt;&lt;li style=&quot;text-align: left;&quot;&gt;&lt;b&gt;&lt;font style=&quot;font-size: 17px;&quot;&gt;PowerMetter&lt;/font&gt;&lt;/b&gt;&lt;/li&gt;&lt;/ul&gt;&lt;/div&gt;" style="ellipse;whiteSpace=wrap;html=1;container=0;" vertex="1" parent="1">
          <mxGeometry x="510" y="160" width="190" height="160" as="geometry" />
        </mxCell>
        <mxCell id="T_whibfby476LMdTVDX2-9" value="" style="ellipse;whiteSpace=wrap;html=1;container=0;" vertex="1" parent="1">
          <mxGeometry x="319" y="425" width="190" height="160" as="geometry" />
        </mxCell>
      </root>
    </mxGraphModel>
  </diagram>
</mxfile>
